<svg id="catte" xmlns="http://www.w3.org/2000/svg" viewBox="0 0 183 207">
	<path id="path2344" d="M11,193.46C3.08,183.88,8.34,175,28,164.94c17.54-9,19.7-11.67,27.22-33.65,13.52-39.52,23.84-50.51,58.18-62,11.7-3.92,17-7.71,16.13-11.43C122,27,124.79,19.11,140.3,27.41c5.21,2.78,9.4,1.81,16.63-3.88,10.89-8.57,12.23-7.51,16,12.61C174.67,45.39,174,52.4,171,56s-3.58,10.06-2,17.47c2.14,9.75.45,15-9.19,28.41-14.4,20-16.16,43.26-4.2,55.22,9.52,9.52,9.74,15.24.59,15.24s-19.64-11.8-19.64-22.33c0-11.31-11.1-15.16-17.7-6.14-6.81,9.32-6.56,17,.55,17a5.74,5.74,0,0,1,5.72,5.72c0,4.6-5.9,5.71-30.27,5.71-16.64,0-31.25-1.6-32.46-3.55s-9.11-1.2-19,2.18c-18.55,6.32-27.86,14.36-21.31,18.41,2.19,1.36,4,4.08,4,6.05C26.12,200.93,16.17,199.65,11,193.46Z"/>
</svg>