<?xml version="1.0" encoding="utf-8"?>
<!-- Generator: Adobe Illustrator 19.1.0, SVG Export Plug-In . SVG Version: 6.00 Build 0)  -->
<svg version="1.1" id="Layer_1" xmlns="http://www.w3.org/2000/svg" xmlns:xlink="http://www.w3.org/1999/xlink" x="0px" y="0px"
	 viewBox="0 0 198 208" style="enable-background:new 0 0 198 208;" xml:space="preserve">
<style type="text/css">
	.st0{fill:#FFFFFF;}
</style>
<g>
	<g>
        <path class="horde-symbol" d="M92,191c-7.2-12.8-14.4-25.5-21.9-38.7c1.6-0.3,2.1-0.5,2.5-0.4c8.5,1.7,11.9-1,11-9.6c-1-10.2-3.9-19.5-14.3-24.6
            c-4.2-2.1-7.9-2.1-11.8,0.1c-2.2,1.2-4.4,2.3-7.2,3.8c-7.7-11.2-15.4-22.2-23-33.2c0.4-0.3,0.8-0.7,1.2-1
            c8.9,3.6,15.1,13.5,26.7,11.4c2.9-14.5-9.7-18.7-18.1-26.9c5.6-6.4,11.4-12.7,16.8-19.3c1.7-2.1,3.1-4.7,3.9-7.2
            c1-3.5,1.1-7.2,1.7-10.8c0.7-4.5,3.8-6,7.1-3.6c7.6,5.6,12.8,1.9,18.6-2.9c4.5-3.8,9.9-6.7,14.4-10.6c4-3.5,7.4-2.8,10.9,0.3
            c8.9,7.9,17.8,15.9,26.9,23.6c1.2,1,3.9,1.1,5.6,0.6c3.2-1,6.3-2.6,10.9-4.7c-0.6,4.2-0.6,7.1-1.5,9.8c-1.2,3.7-0.6,6.6,1.4,9.9
            c3.6,5.7,6.7,11.8,9.8,17.3c-4.2,3.6-8,6.5-11.4,9.8c-1.5,1.4-2.8,3.4-3.4,5.4c-2.1,6.9,1.6,10.9,8.3,8.6
            c5.2-1.8,10.2-4.6,16.1-7.3c-3.4,13-12.7,21.5-17.8,32.3c-4.5-1.9-8.3-3.8-12.3-5.3c-3.8-1.4-7.9-1.2-10.6,2
            c-3.7,4.2-7.1,8.7-10.1,13.4c-1.9,2.9-2.7,6.9,0.6,9c2,1.2,5.4,0.3,8.2,0.1c0.9-0.1,1.8-0.6,3.6-1.3
            c-3.4,14.7-14.1,24.2-20.5,36.2c-0.5-0.1-1.1-0.2-1.6-0.3c-0.6-4.5-1-8.9-1.7-13.4c-1-6.7-2.4-13.3-3.1-20
            c-0.3-2.6,0.3-5.7,1.5-8.1c6.2-11.5,13.8-22.4,19-34.3c4.3-9.9,5.6-20.9,2.5-31.8c-4-14.3-24.2-22.5-37.8-16.6
            C83.3,57,76.2,63.9,71.5,73.2c-3.2,6.4-3.1,14,0.1,20.4c6.3,12.5,13.9,24.4,19.9,37.1c2.5,5.4,3.4,12,3.3,18
            c-0.1,14.1-1.1,28.2-1.8,42.3C92.7,191,92.3,191,92,191z"/>
        <path class="horde-symbol" d="M102.8,58.2c5.1,6.5,9.8,12.4,14.2,18.5c0.7,1,0.6,3.4-0.2,4.4c-4.3,5.8-8.8,11.4-13.9,17.8c-5.9-6.6-11.2-12.4-16.2-18.4
            c-0.7-0.8-0.7-3.2,0-4C91.7,70.6,96.9,64.9,102.8,58.2z"/>
	</g>
</g>
</svg>
