<svg xmlns="http://www.w3.org/2000/svg" viewBox="0 0 314.5 212"><defs><style>.cls-1{fill:#878787;}</style></defs><title>mass-logo</title><path class="cls-1" d="M261.9,181.57l-1.25,1-1.36,2-1.13,1,0.47,1.24,1.13,1.41,1.33,1,1,0.14,0.52-.94,0.15-1.61-0.07-3.49Zm-7.79,1.67-1.18-.46-1.09-1,1.65-1,0.87-.86,0-1.06-0.87-1.64-1.2-.58-0.76.9-0.76,1.29-1.22.66,0.88-2.59-1-.25-4.55,1.93-2.48,2.59-1.08.59-1.05.81L238,186.52l-1,1.37-1.53.67-5.35,0v0.82l1,0.76,1.59,2.12,0.87,0.9,1.53,0.93,0.86,0,1.6-1.57,2-1.31,2.31-1,2.51-.62,11.75-.23,1.45-.39-0.81-5.62Zm45.27,7.93-1.32-4.8-0.37-.87-0.46-.55-0.62-.21-0.83.12,1,3-0.59,2.42-2.62,4.4,1.3-.61,2.33-2.52,1.53-.57-0.52,1.53L297.21,194l-1.2,1.1-2.12.66-0.88,1-0.67.28-0.66,0-0.76-.54-0.79-.24-2.54-.09-7.17.92v0.68l9,3.14,4.64,0.8,4.57-.18,4-2.19-0.76-3.61ZM303,157.49l-0.29-.49-0.66-.25-0.67,2.89-3.36,8.54,1.59-.35,2.17-6.49,1.4-2.25-0.05-.9ZM304.93,134l-3.71-13.13-2-3.15-4.55-5.29L293,111.17l-3.56-1.8-1.28-1.09-1.37-.64-3.56.49-1.36-.61-0.66-.09-0.84.64-0.73,1-0.3,1.05,0.23,0.53,0.49,0.39,0.56,0.33,0.42,0.36,1.89,2.81,1.2,0.74,1.46-.5V114l-0.42,0-1.28,0,1.71-2.8,2.89,0,2.7,2.08,1.21,3.45,0.24,1.27,1.53,5.24,0.13,1.67-0.13,5.25,0.94-1.22,0.47-3.46,1.15-.72,0.81,0.42,0.79,0.88,1.06,0.8,1.59,0.18v0.83l-1.35.58-0.72.19h-0.8l1.62,2.79,0.64,3.64-0.49,3.66-1.77,2.83-1.26.57-3,.52-2.39,1.7-7.54,2.1-4.35,2.54-2.58,1-3.37-.05-1.67-.4-0.37-.71,1.08-.63,3.07,0,1.26-.52-10.52-1-3.18-1.24-5.43-3.76-2.38-2.92,0.12-2.85,0.64-3-0.49-4.24-1.28-3.8-1.73-1.65-3.26.31-1.55-.28L246.42,122l-4.8-5,0.74-.46,0.61-.15,0.67,0.15,0.81,0.46,0.78-5.29,0.62-.8,0.79,0.7,0.81,1.63,1,3.07-0.52.09-0.76.44-0.42.17,0.84,0.57,0.86,0.25,0.88-.15,0.84-.67,0.49-.76-0.13-.3-0.44-.34-2.51-4-0.69-1.82,0.42-1.91L245.45,106l-2.08-3.92-1.48-2.22-1-.93-0.4,0,0-.34V95.27l-0.23-.75-2.11-2.67-1.65-1.51-1.84-1.18-4-1.12-2-1.61L225,82.57,225,83.9l0.6,1.78,1,1.57,1.08,0.68,0,0.66-0.67,1.15-1,.45L225,88.69l-0.93.74-1.35.77-1.2.48-0.54,0-0.22.42L220.28,91l-0.51-.33-0.37-.38V89.81l0.89-.89,0.25-.61-0.86-1.46-1.72.07-1.28-.46,0.45-3.06-2,1.22-0.79,0-0.94-.83-0.71-1.53,0.4-1.15,1-.69,1.27-.12-0.46-1-0.64-.63-0.81-.39L212.52,78l1-1.46,1.18,0.66,1.4,1,1.54-.25-0.86-.47-0.69-.8-0.1-.76,0.84-.33L217.95,76l1.36,1.78L220.53,78l-0.66-1.08-0.23-1-0.25-2.47-0.69-1.8,0.08-1,0.86-1.48,1.62-1,2.26,2.75,2.06-.66-1.06-.68-1.11-.94-0.63-1.19L223.07,66l0.54-.42L225,65.75l0.64-.13,0.54-.4,1.67-1.57,0.37-.51,0.45-.42,0.71-.17,0.71-.29-0.17-.63-0.81-1-0.35-1.13-0.83.6-1.13,1.17-1.15.58,0.2-1.07,0.35-.86,0.51-.69,0.72-.53-0.64-.77,1.41-1,4.25-1.79L242,53l0.64-.76,0.47-1,0.76-1,1-.65,0.47,0.08,0.27,0.57,1.55,0.22,0.39-.24,0.89-.68,0.71-.88,0.39-.94,0.59-.64h1.2V46.34l-0.44-.91,0.25-1,0.12-.82-0.83-.34-1.11-.08-0.71-.38-0.32-.91,0.15-1.64-2.26,1.17-1,.81-0.69,1,0.17,3-0.4,1-1.47-.95-0.1-1.42L238,44.46l-1.49-2,0.81,0.05,0.68-.13,1.28-.69-4.72-2.29-1.77-1.9L232.47,34l0.91,0.87,2.49,3.75,0.63-.84-2.43-7.23-0.91-1.38-0.42-1-0.27-.37-0.29-.09-0.64.11-0.22,0L229.55,27l-0.79-.56-0.83-1,3.78,0.26,0.76-.26,0.15-1-0.67-4L232,19.6l-3,.75-1.74-.46-2.8-1.2-1-.17-0.76,0-8.09,3.6-0.91.66-0.41.4-1.24,1.52-0.61.63-1.08.79-0.79.26h-0.93l-1-.19-1.42-.08-0.84.14-0.66.25-0.45.31-0.44.39-0.76.94-0.34.52-0.64,1.2L201.43,32l-0.35.76-0.86,1-1,.46-1.63.49-0.86.37-0.64.43L195,36.94l-1.2,1.21-1.24.93-0.66.32-0.84.14c-8.59-.29-17.17-0.56-25.76-0.85-9-.31-17.92-0.59-26.87-0.89l-26.08-.86-17.73-.59H94.45l-26.3-1-26.78-1L29,33.86l-1.37,1.8c-2.37,8.73-4.67,17.48-7,26.22Q17.2,74.46,13.83,87.05c-2,7.44-4.1,14.86-6,22.33l2.24,2.74,26.92,1,24.6,0.95,4.5,0.42,0.1,2.91,3.58-.36,0.47-2.56,11.44,0.18,1.94,0.6,1.08,0.19,0.71,0,1.5-.78q13.81,0.25,27.63.54l25.74,0.51c3.19,0.06,6.38,0,9.58.07l0.05,1.2,26.47-.53,3.66-.08,4.32,0.06,0.1,1.52q0.22,5.26.44,10.52l0.13,0.74,0.24,0.58,0.66,0.19,1.58-.1,0.66,0.14,0.3,0.41,0.17,1.27-0.05.8-0.07.68-0.22,1,0,0.54,0.13,1.12L188,139.54l0,0.6,0.15,0.7,0.44,0.85,1,1.28,1.36,1,1,0.54,0.81,0.27,1.53,1.25,2.6,4.49,0.67-1.29,0.17-.53,0.47-.64,1.11,0.26,1.84,0.79,0.79-.51,0.57-.74,2.61-5.18,1-1.39,1.27-.53-2.06,4.62-4.55,7.77-1.4,4.38-0.22,2.23-0.06,2.65,0.29,4.89,0.94,4.13-0.05.81-0.46,1.2,0.22,1.16,1.13,2.59,5.31-4.9,2.06-1.15-0.37-.54-0.76-1.73,3.07,0.57,1-.57,0-2.27,1.08,1.37,0.46,1.68-0.49,1.46-1.66.73,2.45,1.11,2.07-.57,3.71-2.82-0.12.29-0.1.47,1.15,0,1-.58,1.89-1.59-0.54-3.28,0.88-2,1.13-1.84,0.17-2.79,2,1.35,0.57,0.55,0.35,0.8L228,163l0.52,0.62,1-.09,0.1-1.27-0.49-2.85,0.79,0.07,1.62-.67,1.36-.84-0.08-.41V157l0.67-.87,1-.18,1,1.58,1.52-1.86,0.59-1.87,0.81-1.15,2.21,0.26-0.77-1.54-0.12-1.34,0.3-3.62,0.79-.2,1.71,0.93,2.63,2h0.57l0.27-1.36,0.66-.75,0.79,0.08,0.59,1.19-0.37.15-0.81.67,0.49,1.22-0.66,1-1,.92L245,153.33l0.1,1.54,0.42,1.8-0.05,8.46-0.76,3.06-2,2.18,2.66-.22,4.79-2.24,2.52-.56,2.75-.12,2.36-.5,2-1.13,1.72-2,2.56-4.47,0.86-.91,1,0.29,1.21,2,0.88-.42,1.26-1.08,1.15-.27,2.76,0.28,1.32-.24,2.26-1.05,1.23-.22-0.83,2.79-0.15,1.15,0.73-.61,1.31-2.17,0.71-.84,0.84-.33,1-.23,2.68-1.36h4l13.2-2.37,3.27,0.86,0.54-7.44-0.14-5.78-0.64-1.5-1.23-.15-1.91,1.19,0.32-1.5,0.31-3.18,0.45-1.47,1.1,1.28,1.21,1,0.37,0,0.29-.1,0.27-.21,0.27-.36Z"/></svg>